<?xml version="1.0" encoding="utf-8"?>
<!-- Generator: Adobe Illustrator 25.0.0, SVG Export Plug-In . SVG Version: 6.00 Build 0)  -->
<svg version="1.1" id="Livello_1" xmlns="http://www.w3.org/2000/svg" xmlns:xlink="http://www.w3.org/1999/xlink" x="0px" y="0px"
	 viewBox="0 0 141.7 141.7" style="enable-background:new 0 0 141.7 141.7;" xml:space="preserve">
<style type="text/css">
	.st0{fill:#FFFFFF;}
</style>
<g id="Livello_12">
	<path class="st0" d="M108.2,118.2H42V10.9h66.2V118.2z M70,129.1c0-3,2.4-5.3,5.3-5.3c2.9,0,5.3,2.4,5.3,5.3c0,2.9-2.4,5.3-5.3,5.3
		C72.3,134.5,70,132.1,70,129.1 M112.7,134L112.7,134l0-128.6v0v0h0c0-2.9-2.4-5.3-5.3-5.3c0,0,0,0-0.1,0v0h-12h-35H42.9
		c-2.9,0-5.3,2.4-5.3,5.3h0V134h0c0,0.1,0,0.1,0,0.2c0,2.9,2.4,5.2,5.4,5.2c0,0,0.1,0,0.1,0v0h64.3l0,0c2.9,0,5.3-2.3,5.3-5.2
		C112.7,134.1,112.7,134,112.7,134"/>
</g>
<g id="Livello_1_1_">
</g>
</svg>
