<?xml version="1.0" encoding="utf-8"?>
<!-- Generator: Adobe Illustrator 25.0.0, SVG Export Plug-In . SVG Version: 6.00 Build 0)  -->
<svg version="1.1" id="Layer_1" xmlns="http://www.w3.org/2000/svg" xmlns:xlink="http://www.w3.org/1999/xlink" x="0px" y="0px"
	 viewBox="0 0 500 500" style="enable-background:new 0 0 500 500;" xml:space="preserve">
<style type="text/css">
	.st0{fill:#FF691C;}
</style>
<g>
	<g>
		<polygon class="st0" points="469,360 414.3,360 414.3,332.6 441.6,332.6 441.6,252.7 418.1,182.1 318.4,182.1 318.4,332.6 
			332.1,332.6 332.1,360 291.1,360 291.1,154.7 437.8,154.7 469,248.3 		"/>
	</g>
	<g>
		<path class="st0" d="M373.2,401.1c-30.2,0-54.8-24.6-54.8-54.8c0-30.2,24.6-54.8,54.8-54.8c30.2,0,54.8,24.6,54.8,54.8
			C427.9,376.5,403.4,401.1,373.2,401.1z M373.2,318.9c-15.1,0-27.4,12.3-27.4,27.4s12.3,27.4,27.4,27.4s27.4-12.3,27.4-27.4
			C400.6,331.2,388.3,318.9,373.2,318.9z"/>
	</g>
	<g>
		<polygon class="st0" points="113.1,360 58.4,360 58.4,264.2 85.7,264.2 85.7,332.6 113.1,332.6 		"/>
	</g>
	<g>
		<polygon class="st0" points="318.4,360 195.2,360 195.2,332.6 291.1,332.6 291.1,127.3 31,127.3 31,99.9 318.4,99.9 		"/>
	</g>
	<g>
		<path class="st0" d="M154.2,401.1c-30.2,0-54.8-24.6-54.8-54.8c0-30.2,24.6-54.8,54.8-54.8s54.8,24.6,54.8,54.8
			C208.9,376.5,184.4,401.1,154.2,401.1z M154.2,318.9c-15.1,0-27.4,12.3-27.4,27.4s12.3,27.4,27.4,27.4s27.4-12.3,27.4-27.4
			C181.6,331.2,169.3,318.9,154.2,318.9z"/>
	</g>
	<g>
		<rect x="44.7" y="154.7" class="st0" width="123.2" height="27.4"/>
	</g>
	<g>
		<rect x="58.4" y="209.4" class="st0" width="82.1" height="27.4"/>
	</g>
</g>
</svg>
