<?xml version="1.0" encoding="utf-8"?>
<!-- Generator: Adobe Illustrator 25.0.0, SVG Export Plug-In . SVG Version: 6.00 Build 0)  -->
<svg version="1.1" id="Layer_1" xmlns="http://www.w3.org/2000/svg" xmlns:xlink="http://www.w3.org/1999/xlink" x="0px" y="0px"
	 viewBox="0 0 64 64" style="enable-background:new 0 0 64 64;" xml:space="preserve">
<style type="text/css">
	.st0{fill:#FF691C;}
</style>
<g id="grid">
</g>
<g id="Layer_2_1_">
</g>
<g id="Layer_3">
</g>
<g id="Layer_4">
</g>
<g id="Layer_5">
</g>
<g id="Layer_6">
</g>
<g id="Layer_7">
</g>
<g id="Layer_8">
</g>
<g id="Layer_9">
</g>
<g id="Layer_10">
	<g>
		<path class="st0" d="M48.7,58.3H4.2V16.9h44.5V58.3z M6.2,56.3h40.5V18.9H6.2V56.3z"/>
	</g>
	<g>
		<polygon class="st0" points="5,42.7 4.3,40.8 23.2,33.5 34.1,38.7 41.3,35.8 48.2,40.2 47.1,41.9 41.1,38 34.1,40.9 23.1,35.7 		
			"/>
	</g>
	<g>
		<path class="st0" d="M13.5,30.3c-2,0-3.6-1.6-3.6-3.6s1.6-3.6,3.6-3.6s3.6,1.6,3.6,3.6S15.5,30.3,13.5,30.3z M13.5,25.2
			c-0.9,0-1.6,0.7-1.6,1.6c0,0.9,0.7,1.6,1.6,1.6s1.6-0.7,1.6-1.6S14.4,25.2,13.5,25.2z"/>
	</g>
	<g>
		<polygon class="st0" points="54.3,50.3 52.3,50.3 52.3,13.3 10.7,13.3 10.7,11.3 54.3,11.3 		"/>
	</g>
	<g>
		<polygon class="st0" points="59.8,44.7 57.8,44.7 57.8,7.7 16.3,7.7 16.3,5.7 59.8,5.7 		"/>
	</g>
</g>
<g id="Layer_37">
</g>
<g id="Layer_11">
</g>
<g id="Layer_12">
</g>
<g id="Layer_13">
</g>
<g id="Layer_14">
</g>
<g id="Layer_16">
</g>
<g id="Layer_17">
</g>
<g id="Layer_18">
</g>
<g id="Layer_19">
</g>
<g id="Layer_20">
</g>
<g id="Layer_21">
</g>
<g id="Layer_22">
</g>
<g id="Layer_23">
</g>
<g id="Layer_24">
</g>
<g id="Layer_25">
</g>
</svg>
