<?xml version="1.0" encoding="utf-8"?>
<!-- Generator: Adobe Illustrator 25.0.0, SVG Export Plug-In . SVG Version: 6.00 Build 0)  -->
<svg version="1.1" id="Layer_1" xmlns="http://www.w3.org/2000/svg" xmlns:xlink="http://www.w3.org/1999/xlink" x="0px" y="0px"
	 viewBox="0 0 512 512" style="enable-background:new 0 0 512 512;" xml:space="preserve">
<style type="text/css">
	.st0{fill-rule:evenodd;clip-rule:evenodd;fill:#FF691C;}
</style>
<g id="_x36_8_x2C__logo_x2C__design_x2C__creative_x2C__idea_x2C__design_process">
	<g>
		<path class="st0" d="M296.9,272.5c-0.1-1.8-0.2-3.6-0.2-5.3c0-8.9,1.6-17.4,4.6-25.3c-8.7-0.1-17.1-1.8-24.9-4.8
			c-5.3-2.1-10.3-4.7-15-7.9c2.9,11.7,8.9,22.2,17.2,30.5C283.9,264.9,290.1,269.3,296.9,272.5 M344.6,207
			c-11.7,4.7-21.7,12.6-28.9,22.8c-0.9,1.3-1.8,2.7-2.6,4.1c5.5-0.9,10.7-2.5,15.6-4.7c7.7-3.4,14.6-8.3,20.3-14.3
			C347.7,212.1,346.2,209.5,344.6,207z M268,182c-2.6,4.6-4.7,9.6-6.1,14.8c-1.5,5.4-2.3,11.1-2.3,17.1v0.1v0.1v0.1v0.1v0.1v0.1v0.1
			v0.1v0.1v0.1v0v0.1v0.1v0.1v0.1v0.1l0,0.1v0.1v0.1v0.1v0.1l0,0v0.1v0.1v0.1v0.3v0.1l0,0.1v0.1v0c0,0.9,0.1,1.8,0.2,2.6
			c5.6,4.9,12.1,8.8,19.1,11.5c7.2,2.7,15,4.2,23.3,4.2c0.8,0,1.5,0,2.3,0c1.6-3.1,3.4-6.1,5.4-9c7.6-10.7,18.1-19.3,30.3-24.6
			c-1.2-1.4-2.4-2.7-3.7-4l-0.2-0.2c-11.7-11.7-27.9-18.9-45.8-18.9C282.7,178,275.1,179.4,268,182z M264.3,175.8L264.3,175.8
			c8.2-3.2,17-4.9,26.2-4.9c19.8,0,37.8,8,50.8,21l0.2,0.2c13.3,13.4,20.8,31.5,20.8,50.6c0,19.8-8,37.8-21.1,50.8
			c-13,13-31,21.1-50.8,21.1c-19.8,0-37.8-8-50.8-21.1c-13-13-21.1-31-21.1-50.8c0-19.8,8-37.8,21-50.8
			C246.7,185,255,179.5,264.3,175.8z M340.6,283.9c-0.9,0.2-1.8,0.4-2.7,0.6c-4.4,0.8-8.9,1.2-13.4,1.2h-0.2H324h-0.2h-0.2h-0.1
			h-0.1h-0.2h-0.2h-0.2h-0.2l-0.1,0h-0.1h-0.2h-0.2h-0.2l-0.2,0l0,0h-0.2h-0.2l-0.2,0h-0.2h-0.1h-0.1h-0.2l-0.2,0h-0.2l-0.2,0h-0.1
			h-0.1l-0.2,0h-0.2l-0.2,0h-0.2l0,0l-0.2,0h-0.2l-0.2,0h-0.2l-0.2,0h-0.2l-0.2,0l-0.6-0.1l-0.2,0l-0.2,0h-0.2l-0.2,0h0l-0.2,0
			l-0.2,0h-0.2l-0.3-0.1h0l-0.2,0l-0.2,0c-0.8-0.1-1.7-0.2-2.5-0.4l-0.2,0l-0.2,0l-0.2,0l-0.1,0h-0.1l-2.1-0.4l-0.2,0l-0.4-0.1
			l-0.2-0.1l-0.2,0l-0.2-0.1h-0.1l-0.1,0l-0.2-0.1l-0.2,0l-0.2-0.1l-0.2,0l0,0l-0.2,0l-0.4-0.1l-0.2-0.1l-0.6-0.1l-0.2-0.1l-1.1-0.3
			l0,0l-0.2,0l-0.2-0.1l-0.2-0.1l-0.2-0.1l-0.1,0l-0.1,0l-0.2-0.1l-0.2-0.1l-0.6-0.2l-0.2-0.1l-0.2-0.1l-0.2-0.1l-0.1,0l-0.1,0
			l-0.2-0.1l-0.4-0.1l-0.2-0.1v0l-0.2-0.1c-10.5-3.6-19.9-9.5-27.6-17.2c-12.3-12.3-20.2-29-21-47.6l0-0.1v-0.1l0-0.1v-0.2v-0.1
			v-0.1l0-0.1v-0.1l0-0.1v-0.1v-0.1v0v-0.1v-0.1v-0.1v-0.1l0-0.1v-0.1V215v-0.1l0-0.1v-0.1v-0.1v-0.1v-0.1v-0.1v-0.1v-0.1V214v-0.1
			c0-6.5,0.9-12.9,2.5-18.9c0.8-2.8,1.7-5.5,2.7-8.1c-4.8,2.8-9.2,6.2-13.1,10.1c-11.7,11.7-19,27.9-19,45.8s7.2,34.1,19,45.8
			c11.7,11.7,27.9,19,45.8,19c17.9,0,34.1-7.3,45.8-19C337.8,287,339.2,285.5,340.6,283.9z M351.9,221.9
			c-5.9,5.6-12.8,10.3-20.3,13.7c-7,3.1-14.5,5.2-22.4,5.9c-3.4,7.9-5.3,16.5-5.3,25.7c0,1.8,0.1,3.6,0.2,5.2l0.3,3.1
			c4,1.3,8.3,2.2,12.6,2.7h0h0.2l0.5,0.1l0.1,0l0.4,0l0.2,0h0.2l0.1,0h0.1h0.2l0.2,0h0.2l0.2,0h0h0.2l0.2,0h0.2l0.2,0h0.1h0h0.2
			l0.2,0h0.2h0.2l0.1,0h0.1h0.2h0.2l0.2,0h0.2h0h0.2h0.2h0.2l0.2,0h0.1h0.1h0.2h0.2h0.2h0.2h0.1h0.1h0.2h0.2h0.2h0.2
			c4.2,0,8.2-0.4,12.1-1.1c3.6-0.7,7.1-1.6,10.4-2.9c5.3-9.4,8.4-20.3,8.4-31.9C355.3,235.4,354.1,228.4,351.9,221.9z M174.3,170.7
			l-17.4,17.4l34.5,17.1L174.3,170.7z M29,62.1l7.1,7.1L55.4,50l-7.1-7.2c-2-2-4.6-2.9-7.2-2.9c-2.5,0-5.1,0.9-7,2.8L29,47.8
			c-2,2-3,4.6-3,7.2C26,57.5,27,60.1,29,62.1z M60.4,55L41.1,74.3l2.9,2.9l19.2-19.3L60.4,55z M68.3,62.9L49,82.2
			c34,34,67.9,67.9,101.9,101.9l19.2-19.2C136.2,130.8,102.2,96.9,68.3,62.9z M134.9,119.5l42.7,42.7l0.1,0.1l0.1,0.1l0.1,0.1
			l0.1,0.1l0.1,0.1l0,0v0l0,0l0,0l0,0c0.3,0.3,0.5,0.7,0.7,1l0,0.1l23.7,47.8l0,0.1l0,0l0,0l0,0.1l0,0l0,0l0,0.1v0l0,0l0,0v0l0,0
			l0,0.1l0,0v0.1l0,0l0,0v0v0l0,0.1h0v0l0,0.1l0,0l0,0.1v0l0,0l0,0.1l0,0v0v0.1l0,0l0,0l0,0.1l0,0v0.1v0l0,0l0,0.1v0v0v0.1l0,0v0
			l0,0.1l0,0v0.1v0v0v0v0v0v0.1l0,0l0,0.1v0l0,0v0.1v0v0l0,0v0v0v0.1l0,0l0,0.1l0,0l0,0v0.1v0l0,0l0,0.1l0,0v0l0,0v0l0,0.1l0,0
			l0,0.1l0,0l0,0l0,0.1l0,0v0l0,0v0l0,0l0,0.1h0l0,0.1l0,0l0,0l0,0.1l0,0.1l0,0l0,0l0,0.1l0,0l0,0.1l0,0l0,0l0,0.1l0,0v0l0,0.1l0,0
			l0,0.1h0l0,0.1v0l0,0.1l0,0l0,0.1v0l-0.1,0.1l0,0l-0.1,0.1l0,0l-0.1,0.1v0l-0.1,0.1l0,0l-0.1,0.1l0,0l-0.1,0.1l-0.1,0.1l0,0
			l-0.1,0.1h0l-0.1,0.1h0l-0.1,0.1l0,0l-0.1,0.1h0l-0.1,0.1h0l-0.1,0.1l0,0l-0.1,0h0l-0.1,0.1h0l-0.1,0l0,0l-0.1,0h0l0,0l0,0l0,0h0
			l0,0l0,0l-0.1,0h0l0,0h0l-0.1,0l0,0h0h0l0,0h0l0,0h0h0h0l0,0h-0.1l0,0l0,0h0l0,0l-0.1,0h0h0h0l0,0l0,0h0h0h-0.1h0l0,0h0l0,0h-0.1
			h0h0h0h0l0,0h-0.1l0,0h0h0l0,0h-0.1h0h0h0h0h0H199l0,0H199h0h0h0l0,0h0h-0.1l0,0h0h0l0,0h-0.1l0,0h0h0h0h0l-0.1,0l0,0h0h0l0,0
			l-0.1,0h0l0,0l-0.1,0h0h0l0,0l0,0h0l0,0h0l0,0h0h0l0,0h0l-0.1,0l0,0l0,0h0l0,0l0,0l0,0l-47.9-23.7h0l0,0l-0.1-0.1l-0.1-0.1l0,0
			l-0.2-0.1l0,0h0l0,0l0,0l-0.3-0.2h0l0,0l-0.1-0.1l0,0l0,0l0,0h0l0,0h0l-0.1-0.1l-0.1-0.1l-0.1-0.1l-0.1-0.1l-50.8-50.8v148.1
			l85.1,85.1h232.8V119.5H134.9z M486,200.4h-47.7v211.9H486v-12.9h-23.6c-2,0-3.6-1.6-3.6-3.6c0-2,1.6-3.6,3.6-3.6H486V381h-13.4
			c-2,0-3.6-1.6-3.6-3.6s1.6-3.6,3.6-3.6H486v-10.6h-23.6c-2,0-3.6-1.6-3.6-3.6c0-2,1.6-3.6,3.6-3.6H486v-11.3h-13.4
			c-2,0-3.6-1.6-3.6-3.5c0-2,1.6-3.6,3.6-3.6H486v-10.6h-23.6c-2,0-3.6-1.6-3.6-3.6c0-2,1.6-3.6,3.6-3.6H486v-11.3h-13.4
			c-2,0-3.6-1.6-3.6-3.5c0-2,1.6-3.6,3.6-3.6H486V291h-23.6c-2,0-3.6-1.6-3.6-3.6s1.6-3.6,3.6-3.6H486v-11.3h-13.4
			c-2,0-3.6-1.6-3.6-3.6c0-1.9,1.6-3.6,3.6-3.6H486v-10.6h-23.6c-2,0-3.6-1.6-3.6-3.6c0-2,1.6-3.6,3.6-3.6H486v-11.3h-13.4
			c-2,0-3.6-1.6-3.6-3.6c0-1.9,1.6-3.6,3.6-3.6H486v-10.6h-23.6c-2,0-3.6-1.6-3.6-3.6c0-2,1.6-3.6,3.6-3.6H486V200.4z M88.1,329.4
			l2.4,54.5l54.5,2.4L88.1,329.4z M83.6,387.5l-3-66.9c-0.1-2,1.4-3.6,3.4-3.7c1,0,2,0.4,2.7,1l69.9,69.9c1.4,1.4,1.4,3.6,0,5
			c-0.8,0.8-1.9,1.1-2.9,1l-66.6-3C85.1,390.8,83.7,389.3,83.6,387.5z M266.7,465c2,0,3.6,1.6,3.6,3.6c0,1.9-1.6,3.6-3.6,3.6H76.4
			c-2,0-3.6-1.6-3.6-3.6c0-2,1.6-3.6,3.6-3.6H266.7z M56.9,465c2,0,3.5,1.6,3.5,3.6c0,1.9-1.6,3.6-3.5,3.6H33.1
			c-2,0-3.6-1.6-3.6-3.6c0-2,1.6-3.6,3.6-3.6H56.9z M438.5,464.5c2,0,3.5,1.6,3.5,3.6s-1.6,3.6-3.5,3.6h-90.2c-2,0-3.6-1.6-3.6-3.6
			s1.6-3.6,3.6-3.6H438.5z M296,101.7c-2,0-3.6-1.6-3.6-3.6c0-2,1.6-3.6,3.6-3.6h140.3c2,0,3.6,1.6,3.6,3.6v64.7
			c0,2-1.6,3.6-3.6,3.6c-2,0-3.6-1.6-3.6-3.6v-61.1L296,101.7L296,101.7z M427.7,448.2c2,0,3.6,1.6,3.6,3.6s-1.6,3.6-3.6,3.6h-275
			c-2,0-3.6-1.6-3.6-3.6s1.6-3.6,3.6-3.6H427.7z M43.1,244.5l8,178.9l179,8L43.1,244.5z"/>
	</g>
</g>
<g id="Layer_1_1_">
</g>
</svg>
